<svg width="14" height="14" viewBox="0 0 14 14" fill="none" xmlns="http://www.w3.org/2000/svg">
<path d="M7.00004 6.33334C6.82323 6.33334 6.65366 6.40358 6.52864 6.52861C6.40361 6.65363 6.33338 6.8232 6.33338 7.00001V9.66668C6.33338 9.84349 6.40361 10.0131 6.52864 10.1381C6.65366 10.2631 6.82323 10.3333 7.00004 10.3333C7.17685 10.3333 7.34642 10.2631 7.47145 10.1381C7.59647 10.0131 7.66671 9.84349 7.66671 9.66668V7.00001C7.66671 6.8232 7.59647 6.65363 7.47145 6.52861C7.34642 6.40358 7.17685 6.33334 7.00004 6.33334ZM7.25338 3.72001C7.09107 3.65333 6.90902 3.65333 6.74671 3.72001C6.66488 3.75174 6.59011 3.79932 6.52671 3.86001C6.46782 3.92481 6.42047 3.99922 6.38671 4.08001C6.34939 4.15913 6.33112 4.24589 6.33338 4.33334C6.33287 4.42108 6.34969 4.50806 6.38286 4.58928C6.41604 4.67051 6.46492 4.74438 6.52671 4.80668C6.59151 4.86556 6.66592 4.91292 6.74671 4.94668C6.84771 4.98817 6.95735 5.00422 7.06601 4.99342C7.17466 4.98262 7.279 4.94529 7.36985 4.88472C7.4607 4.82416 7.53529 4.7422 7.58705 4.64606C7.63881 4.54992 7.66617 4.44253 7.66671 4.33334C7.66425 4.15683 7.5952 3.98777 7.47338 3.86001C7.40997 3.79932 7.33521 3.75174 7.25338 3.72001ZM7.00004 0.333344C5.6815 0.333344 4.39257 0.724337 3.29624 1.45688C2.19991 2.18942 1.34543 3.23061 0.840847 4.44879C0.336263 5.66696 0.20424 7.00741 0.461475 8.30061C0.71871 9.59382 1.35365 10.7817 2.286 11.7141C3.21835 12.6464 4.40623 13.2813 5.69944 13.5386C6.99265 13.7958 8.33309 13.6638 9.55127 13.1592C10.7694 12.6546 11.8106 11.8001 12.5432 10.7038C13.2757 9.60748 13.6667 8.31855 13.6667 7.00001C13.6667 6.12453 13.4943 5.25762 13.1592 4.44879C12.8242 3.63995 12.3331 2.90502 11.7141 2.28596C11.095 1.66691 10.3601 1.17584 9.55127 0.840813C8.74243 0.505782 7.87552 0.333344 7.00004 0.333344ZM7.00004 12.3333C5.94521 12.3333 4.91406 12.0205 4.037 11.4345C3.15994 10.8485 2.47635 10.0155 2.07269 9.04099C1.66902 8.06645 1.5634 6.99409 1.76919 5.95953C1.97498 4.92496 2.48293 3.97465 3.22881 3.22877C3.97469 2.48289 4.925 1.97494 5.95956 1.76916C6.99413 1.56337 8.06648 1.66899 9.04102 2.07265C10.0156 2.47632 10.8485 3.15991 11.4345 4.03697C12.0206 4.91403 12.3334 5.94518 12.3334 7.00001C12.3334 8.4145 11.7715 9.77105 10.7713 10.7712C9.77109 11.7714 8.41453 12.3333 7.00004 12.3333Z" fill="#C4C4C4"/>
</svg>
